<mxfile host="app.diagrams.net" agent="Mozilla/5.0 (Macintosh; Intel Mac OS X 10_15_7) AppleWebKit/537.36 (KHTML, like Gecko) Chrome/127.0.0.0 Safari/537.36" version="24.7.7">
  <diagram name="Page-1" id="99bclCvsHSO2PYTWa3nu">
    <mxGraphModel dx="968" dy="684" grid="1" gridSize="10" guides="1" tooltips="1" connect="1" arrows="1" fold="1" page="1" pageScale="1" pageWidth="850" pageHeight="1100" math="0" shadow="0">
      <root>
        <mxCell id="0" />
        <mxCell id="1" parent="0" />
        <mxCell id="lg_EyMamGVI91yFSFqXe-5" style="edgeStyle=orthogonalEdgeStyle;rounded=0;orthogonalLoop=1;jettySize=auto;html=1;exitX=0.5;exitY=0;exitDx=0;exitDy=0;entryX=0;entryY=0.5;entryDx=0;entryDy=0;curved=1;" edge="1" parent="1" source="lg_EyMamGVI91yFSFqXe-1" target="lg_EyMamGVI91yFSFqXe-2">
          <mxGeometry relative="1" as="geometry" />
        </mxCell>
        <mxCell id="lg_EyMamGVI91yFSFqXe-21" value="&lt;font style=&quot;font-size: 16px;&quot;&gt;1&lt;/font&gt;" style="edgeLabel;html=1;align=center;verticalAlign=middle;resizable=0;points=[];" vertex="1" connectable="0" parent="lg_EyMamGVI91yFSFqXe-5">
          <mxGeometry x="0.16" y="-11" relative="1" as="geometry">
            <mxPoint as="offset" />
          </mxGeometry>
        </mxCell>
        <mxCell id="lg_EyMamGVI91yFSFqXe-1" value="00" style="ellipse;whiteSpace=wrap;html=1;fillColor=#dae8fc;strokeColor=#6c8ebf;fontStyle=1;fontSize=16;" vertex="1" parent="1">
          <mxGeometry x="270" y="240" width="80" height="40" as="geometry" />
        </mxCell>
        <mxCell id="lg_EyMamGVI91yFSFqXe-6" style="edgeStyle=orthogonalEdgeStyle;rounded=0;orthogonalLoop=1;jettySize=auto;html=1;exitX=1;exitY=0.5;exitDx=0;exitDy=0;entryX=0.5;entryY=0;entryDx=0;entryDy=0;curved=1;" edge="1" parent="1" source="lg_EyMamGVI91yFSFqXe-2" target="lg_EyMamGVI91yFSFqXe-4">
          <mxGeometry relative="1" as="geometry" />
        </mxCell>
        <mxCell id="lg_EyMamGVI91yFSFqXe-17" value="&lt;font style=&quot;font-size: 16px;&quot;&gt;1&lt;/font&gt;" style="edgeLabel;html=1;align=center;verticalAlign=middle;resizable=0;points=[];" vertex="1" connectable="0" parent="lg_EyMamGVI91yFSFqXe-6">
          <mxGeometry x="-0.1867" y="-8" relative="1" as="geometry">
            <mxPoint as="offset" />
          </mxGeometry>
        </mxCell>
        <mxCell id="lg_EyMamGVI91yFSFqXe-14" style="edgeStyle=orthogonalEdgeStyle;curved=1;rounded=0;orthogonalLoop=1;jettySize=auto;html=1;exitX=0.5;exitY=1;exitDx=0;exitDy=0;entryX=0.5;entryY=0;entryDx=0;entryDy=0;dashed=1;" edge="1" parent="1" source="lg_EyMamGVI91yFSFqXe-2" target="lg_EyMamGVI91yFSFqXe-3">
          <mxGeometry relative="1" as="geometry">
            <Array as="points">
              <mxPoint x="460" y="200" />
              <mxPoint x="460" y="300" />
              <mxPoint x="440" y="300" />
            </Array>
          </mxGeometry>
        </mxCell>
        <mxCell id="lg_EyMamGVI91yFSFqXe-19" value="&lt;font style=&quot;font-size: 16px;&quot;&gt;1&lt;/font&gt;" style="edgeLabel;html=1;align=center;verticalAlign=middle;resizable=0;points=[];" vertex="1" connectable="0" parent="lg_EyMamGVI91yFSFqXe-14">
          <mxGeometry x="-0.0125" y="2" relative="1" as="geometry">
            <mxPoint x="-2" y="1" as="offset" />
          </mxGeometry>
        </mxCell>
        <mxCell id="lg_EyMamGVI91yFSFqXe-2" value="01" style="ellipse;whiteSpace=wrap;html=1;fillColor=#d5e8d4;strokeColor=#82b366;fontStyle=1;fontSize=16;" vertex="1" parent="1">
          <mxGeometry x="400" y="160" width="80" height="40" as="geometry" />
        </mxCell>
        <mxCell id="lg_EyMamGVI91yFSFqXe-8" style="edgeStyle=orthogonalEdgeStyle;rounded=0;orthogonalLoop=1;jettySize=auto;html=1;exitX=0;exitY=0.5;exitDx=0;exitDy=0;entryX=0.5;entryY=1;entryDx=0;entryDy=0;curved=1;" edge="1" parent="1" source="lg_EyMamGVI91yFSFqXe-3" target="lg_EyMamGVI91yFSFqXe-1">
          <mxGeometry relative="1" as="geometry" />
        </mxCell>
        <mxCell id="lg_EyMamGVI91yFSFqXe-22" value="&lt;font style=&quot;font-size: 16px;&quot;&gt;0&lt;/font&gt;" style="edgeLabel;html=1;align=center;verticalAlign=middle;resizable=0;points=[];" vertex="1" connectable="0" parent="lg_EyMamGVI91yFSFqXe-8">
          <mxGeometry x="-0.1867" y="-10" relative="1" as="geometry">
            <mxPoint as="offset" />
          </mxGeometry>
        </mxCell>
        <mxCell id="lg_EyMamGVI91yFSFqXe-13" style="edgeStyle=orthogonalEdgeStyle;curved=1;rounded=0;orthogonalLoop=1;jettySize=auto;html=1;exitX=0.5;exitY=0;exitDx=0;exitDy=0;entryX=0.5;entryY=1;entryDx=0;entryDy=0;dashed=1;" edge="1" parent="1" source="lg_EyMamGVI91yFSFqXe-3" target="lg_EyMamGVI91yFSFqXe-2">
          <mxGeometry relative="1" as="geometry">
            <Array as="points">
              <mxPoint x="420" y="320" />
              <mxPoint x="420" y="220" />
              <mxPoint x="440" y="220" />
            </Array>
          </mxGeometry>
        </mxCell>
        <mxCell id="lg_EyMamGVI91yFSFqXe-20" value="&lt;font style=&quot;font-size: 16px;&quot;&gt;0&lt;/font&gt;" style="edgeLabel;html=1;align=center;verticalAlign=middle;resizable=0;points=[];" vertex="1" connectable="0" parent="lg_EyMamGVI91yFSFqXe-13">
          <mxGeometry y="2" relative="1" as="geometry">
            <mxPoint as="offset" />
          </mxGeometry>
        </mxCell>
        <mxCell id="lg_EyMamGVI91yFSFqXe-3" value="10" style="ellipse;whiteSpace=wrap;html=1;fillColor=#dae8fc;strokeColor=#6c8ebf;fontStyle=1;fontSize=16;" vertex="1" parent="1">
          <mxGeometry x="400" y="320" width="80" height="40" as="geometry" />
        </mxCell>
        <mxCell id="lg_EyMamGVI91yFSFqXe-7" style="edgeStyle=orthogonalEdgeStyle;rounded=0;orthogonalLoop=1;jettySize=auto;html=1;exitX=0.5;exitY=1;exitDx=0;exitDy=0;entryX=1;entryY=0.5;entryDx=0;entryDy=0;curved=1;" edge="1" parent="1" source="lg_EyMamGVI91yFSFqXe-4" target="lg_EyMamGVI91yFSFqXe-3">
          <mxGeometry relative="1" as="geometry" />
        </mxCell>
        <mxCell id="lg_EyMamGVI91yFSFqXe-18" value="&lt;font style=&quot;font-size: 16px;&quot;&gt;0&lt;/font&gt;" style="edgeLabel;html=1;align=center;verticalAlign=middle;resizable=0;points=[];" vertex="1" connectable="0" parent="lg_EyMamGVI91yFSFqXe-7">
          <mxGeometry x="0.0533" y="-15" relative="1" as="geometry">
            <mxPoint as="offset" />
          </mxGeometry>
        </mxCell>
        <mxCell id="lg_EyMamGVI91yFSFqXe-4" value="11" style="ellipse;whiteSpace=wrap;html=1;fillColor=#dae8fc;strokeColor=#6c8ebf;fontStyle=1;fontSize=16;" vertex="1" parent="1">
          <mxGeometry x="530" y="240" width="80" height="40" as="geometry" />
        </mxCell>
        <mxCell id="lg_EyMamGVI91yFSFqXe-31" style="edgeStyle=orthogonalEdgeStyle;curved=1;rounded=0;orthogonalLoop=1;jettySize=auto;html=1;exitX=1;exitY=0.5;exitDx=0;exitDy=0;entryX=0.5;entryY=0;entryDx=0;entryDy=0;" edge="1" parent="1" source="lg_EyMamGVI91yFSFqXe-23" target="lg_EyMamGVI91yFSFqXe-24">
          <mxGeometry relative="1" as="geometry" />
        </mxCell>
        <mxCell id="lg_EyMamGVI91yFSFqXe-71" value="&lt;font style=&quot;font-size: 16px;&quot;&gt;1&lt;/font&gt;" style="edgeLabel;html=1;align=center;verticalAlign=middle;resizable=0;points=[];" vertex="1" connectable="0" parent="lg_EyMamGVI91yFSFqXe-31">
          <mxGeometry x="-0.1818" y="-23" relative="1" as="geometry">
            <mxPoint y="1" as="offset" />
          </mxGeometry>
        </mxCell>
        <mxCell id="lg_EyMamGVI91yFSFqXe-58" style="edgeStyle=orthogonalEdgeStyle;curved=1;rounded=0;orthogonalLoop=1;jettySize=auto;html=1;exitX=1;exitY=0.5;exitDx=0;exitDy=0;entryX=0.5;entryY=1;entryDx=0;entryDy=0;dashed=1;" edge="1" parent="1" source="lg_EyMamGVI91yFSFqXe-23" target="lg_EyMamGVI91yFSFqXe-28">
          <mxGeometry relative="1" as="geometry">
            <Array as="points">
              <mxPoint x="500" y="460" />
              <mxPoint x="500" y="750" />
              <mxPoint x="120" y="750" />
            </Array>
          </mxGeometry>
        </mxCell>
        <mxCell id="lg_EyMamGVI91yFSFqXe-64" value="&lt;font style=&quot;font-size: 16px;&quot;&gt;0&lt;/font&gt;" style="edgeLabel;html=1;align=center;verticalAlign=middle;resizable=0;points=[];" vertex="1" connectable="0" parent="lg_EyMamGVI91yFSFqXe-58">
          <mxGeometry x="-0.2611" y="-40" relative="1" as="geometry">
            <mxPoint as="offset" />
          </mxGeometry>
        </mxCell>
        <mxCell id="lg_EyMamGVI91yFSFqXe-23" value="001" style="ellipse;whiteSpace=wrap;html=1;fillColor=#d5e8d4;strokeColor=#82b366;fontStyle=1;fontSize=16;" vertex="1" parent="1">
          <mxGeometry x="400" y="440" width="80" height="40" as="geometry" />
        </mxCell>
        <mxCell id="lg_EyMamGVI91yFSFqXe-32" style="edgeStyle=orthogonalEdgeStyle;curved=1;rounded=0;orthogonalLoop=1;jettySize=auto;html=1;exitX=0.5;exitY=1;exitDx=0;exitDy=0;" edge="1" parent="1" source="lg_EyMamGVI91yFSFqXe-24" target="lg_EyMamGVI91yFSFqXe-25">
          <mxGeometry relative="1" as="geometry" />
        </mxCell>
        <mxCell id="lg_EyMamGVI91yFSFqXe-72" value="&lt;font style=&quot;font-size: 16px;&quot;&gt;1&lt;/font&gt;" style="edgeLabel;html=1;align=center;verticalAlign=middle;resizable=0;points=[];" vertex="1" connectable="0" parent="lg_EyMamGVI91yFSFqXe-32">
          <mxGeometry x="-0.0625" relative="1" as="geometry">
            <mxPoint x="-1" as="offset" />
          </mxGeometry>
        </mxCell>
        <mxCell id="lg_EyMamGVI91yFSFqXe-56" style="edgeStyle=orthogonalEdgeStyle;curved=1;rounded=0;orthogonalLoop=1;jettySize=auto;html=1;exitX=0.5;exitY=1;exitDx=0;exitDy=0;entryX=1;entryY=0.5;entryDx=0;entryDy=0;dashed=1;" edge="1" parent="1" source="lg_EyMamGVI91yFSFqXe-24" target="lg_EyMamGVI91yFSFqXe-26">
          <mxGeometry relative="1" as="geometry">
            <Array as="points">
              <mxPoint x="530" y="600" />
              <mxPoint x="530" y="820" />
            </Array>
          </mxGeometry>
        </mxCell>
        <mxCell id="lg_EyMamGVI91yFSFqXe-67" value="&lt;font style=&quot;font-size: 16px;&quot;&gt;0&lt;/font&gt;" style="edgeLabel;html=1;align=center;verticalAlign=middle;resizable=0;points=[];" vertex="1" connectable="0" parent="lg_EyMamGVI91yFSFqXe-56">
          <mxGeometry x="-0.0324" y="2" relative="1" as="geometry">
            <mxPoint x="-2" y="6" as="offset" />
          </mxGeometry>
        </mxCell>
        <mxCell id="lg_EyMamGVI91yFSFqXe-24" value="011" style="ellipse;whiteSpace=wrap;html=1;fillColor=#dae8fc;strokeColor=#6c8ebf;fontStyle=1;fontSize=16;" vertex="1" parent="1">
          <mxGeometry x="560" y="560" width="80" height="40" as="geometry" />
        </mxCell>
        <mxCell id="lg_EyMamGVI91yFSFqXe-33" style="edgeStyle=orthogonalEdgeStyle;curved=1;rounded=0;orthogonalLoop=1;jettySize=auto;html=1;exitX=0.5;exitY=1;exitDx=0;exitDy=0;entryX=1;entryY=0.5;entryDx=0;entryDy=0;" edge="1" parent="1" source="lg_EyMamGVI91yFSFqXe-25" target="lg_EyMamGVI91yFSFqXe-26">
          <mxGeometry relative="1" as="geometry" />
        </mxCell>
        <mxCell id="lg_EyMamGVI91yFSFqXe-73" value="&lt;font style=&quot;font-size: 16px;&quot;&gt;0&lt;/font&gt;" style="edgeLabel;html=1;align=center;verticalAlign=middle;resizable=0;points=[];" vertex="1" connectable="0" parent="lg_EyMamGVI91yFSFqXe-33">
          <mxGeometry x="-0.4045" y="-18" relative="1" as="geometry">
            <mxPoint x="-2" as="offset" />
          </mxGeometry>
        </mxCell>
        <mxCell id="lg_EyMamGVI91yFSFqXe-25" value="111" style="ellipse;whiteSpace=wrap;html=1;fillColor=#dae8fc;strokeColor=#6c8ebf;fontStyle=1;fontSize=16;" vertex="1" parent="1">
          <mxGeometry x="560" y="680" width="80" height="40" as="geometry" />
        </mxCell>
        <mxCell id="lg_EyMamGVI91yFSFqXe-34" style="edgeStyle=orthogonalEdgeStyle;curved=1;rounded=0;orthogonalLoop=1;jettySize=auto;html=1;exitX=0;exitY=0.5;exitDx=0;exitDy=0;" edge="1" parent="1" source="lg_EyMamGVI91yFSFqXe-26" target="lg_EyMamGVI91yFSFqXe-27">
          <mxGeometry relative="1" as="geometry" />
        </mxCell>
        <mxCell id="lg_EyMamGVI91yFSFqXe-74" value="&lt;font style=&quot;font-size: 16px;&quot;&gt;1&lt;/font&gt;" style="edgeLabel;html=1;align=center;verticalAlign=middle;resizable=0;points=[];" vertex="1" connectable="0" parent="lg_EyMamGVI91yFSFqXe-34">
          <mxGeometry x="-0.025" relative="1" as="geometry">
            <mxPoint as="offset" />
          </mxGeometry>
        </mxCell>
        <mxCell id="lg_EyMamGVI91yFSFqXe-57" style="edgeStyle=orthogonalEdgeStyle;curved=1;rounded=0;orthogonalLoop=1;jettySize=auto;html=1;exitX=0;exitY=0.5;exitDx=0;exitDy=0;entryX=0.5;entryY=1;entryDx=0;entryDy=0;dashed=1;" edge="1" parent="1" source="lg_EyMamGVI91yFSFqXe-26" target="lg_EyMamGVI91yFSFqXe-29">
          <mxGeometry relative="1" as="geometry">
            <Array as="points">
              <mxPoint x="380" y="820" />
              <mxPoint x="380" y="760" />
              <mxPoint x="220" y="760" />
              <mxPoint x="220" y="630" />
              <mxPoint x="120" y="630" />
            </Array>
          </mxGeometry>
        </mxCell>
        <mxCell id="lg_EyMamGVI91yFSFqXe-69" value="&lt;font style=&quot;font-size: 16px;&quot;&gt;0&lt;/font&gt;" style="edgeLabel;html=1;align=center;verticalAlign=middle;resizable=0;points=[];" vertex="1" connectable="0" parent="lg_EyMamGVI91yFSFqXe-57">
          <mxGeometry x="0.146" y="-2" relative="1" as="geometry">
            <mxPoint y="1" as="offset" />
          </mxGeometry>
        </mxCell>
        <mxCell id="lg_EyMamGVI91yFSFqXe-26" value="110" style="ellipse;whiteSpace=wrap;html=1;fillColor=#dae8fc;strokeColor=#6c8ebf;fontStyle=1;fontSize=16;" vertex="1" parent="1">
          <mxGeometry x="400" y="800" width="80" height="40" as="geometry" />
        </mxCell>
        <mxCell id="lg_EyMamGVI91yFSFqXe-35" style="edgeStyle=orthogonalEdgeStyle;curved=1;rounded=0;orthogonalLoop=1;jettySize=auto;html=1;exitX=0;exitY=0.5;exitDx=0;exitDy=0;entryX=0.5;entryY=1;entryDx=0;entryDy=0;" edge="1" parent="1" source="lg_EyMamGVI91yFSFqXe-27" target="lg_EyMamGVI91yFSFqXe-28">
          <mxGeometry relative="1" as="geometry" />
        </mxCell>
        <mxCell id="lg_EyMamGVI91yFSFqXe-75" value="&lt;font style=&quot;font-size: 16px;&quot;&gt;0&lt;/font&gt;" style="edgeLabel;html=1;align=center;verticalAlign=middle;resizable=0;points=[];" vertex="1" connectable="0" parent="lg_EyMamGVI91yFSFqXe-35">
          <mxGeometry x="-0.2364" y="-17" relative="1" as="geometry">
            <mxPoint y="-3" as="offset" />
          </mxGeometry>
        </mxCell>
        <mxCell id="lg_EyMamGVI91yFSFqXe-59" style="edgeStyle=orthogonalEdgeStyle;curved=1;rounded=0;orthogonalLoop=1;jettySize=auto;html=1;exitX=0;exitY=0.5;exitDx=0;exitDy=0;entryX=0.5;entryY=0;entryDx=0;entryDy=0;dashed=1;" edge="1" parent="1" source="lg_EyMamGVI91yFSFqXe-27" target="lg_EyMamGVI91yFSFqXe-24">
          <mxGeometry relative="1" as="geometry">
            <Array as="points">
              <mxPoint x="200" y="820" />
              <mxPoint x="200" y="520" />
              <mxPoint x="600" y="520" />
            </Array>
          </mxGeometry>
        </mxCell>
        <mxCell id="lg_EyMamGVI91yFSFqXe-66" value="&lt;font style=&quot;font-size: 16px;&quot;&gt;1&lt;/font&gt;" style="edgeLabel;html=1;align=center;verticalAlign=middle;resizable=0;points=[];" vertex="1" connectable="0" parent="lg_EyMamGVI91yFSFqXe-59">
          <mxGeometry x="0.0462" y="-26" relative="1" as="geometry">
            <mxPoint y="1" as="offset" />
          </mxGeometry>
        </mxCell>
        <mxCell id="lg_EyMamGVI91yFSFqXe-27" value="101" style="ellipse;whiteSpace=wrap;html=1;fillColor=#dae8fc;strokeColor=#6c8ebf;fontStyle=1;fontSize=16;" vertex="1" parent="1">
          <mxGeometry x="240" y="800" width="80" height="40" as="geometry" />
        </mxCell>
        <mxCell id="lg_EyMamGVI91yFSFqXe-36" style="edgeStyle=orthogonalEdgeStyle;curved=1;rounded=0;orthogonalLoop=1;jettySize=auto;html=1;exitX=0.5;exitY=0;exitDx=0;exitDy=0;entryX=0.5;entryY=1;entryDx=0;entryDy=0;" edge="1" parent="1" source="lg_EyMamGVI91yFSFqXe-28" target="lg_EyMamGVI91yFSFqXe-29">
          <mxGeometry relative="1" as="geometry" />
        </mxCell>
        <mxCell id="lg_EyMamGVI91yFSFqXe-76" value="&lt;font style=&quot;font-size: 16px;&quot;&gt;0&lt;/font&gt;" style="edgeLabel;html=1;align=center;verticalAlign=middle;resizable=0;points=[];" vertex="1" connectable="0" parent="lg_EyMamGVI91yFSFqXe-36">
          <mxGeometry x="-0.0375" y="1" relative="1" as="geometry">
            <mxPoint y="1" as="offset" />
          </mxGeometry>
        </mxCell>
        <mxCell id="lg_EyMamGVI91yFSFqXe-60" style="edgeStyle=orthogonalEdgeStyle;curved=1;rounded=0;orthogonalLoop=1;jettySize=auto;html=1;exitX=0.5;exitY=0;exitDx=0;exitDy=0;entryX=1;entryY=0.5;entryDx=0;entryDy=0;dashed=1;" edge="1" parent="1" source="lg_EyMamGVI91yFSFqXe-28" target="lg_EyMamGVI91yFSFqXe-27">
          <mxGeometry relative="1" as="geometry">
            <Array as="points">
              <mxPoint x="120" y="650" />
              <mxPoint x="370" y="650" />
              <mxPoint x="370" y="820" />
            </Array>
          </mxGeometry>
        </mxCell>
        <mxCell id="lg_EyMamGVI91yFSFqXe-68" value="&lt;font style=&quot;font-size: 16px;&quot;&gt;1&lt;/font&gt;" style="edgeLabel;html=1;align=center;verticalAlign=middle;resizable=0;points=[];" vertex="1" connectable="0" parent="lg_EyMamGVI91yFSFqXe-60">
          <mxGeometry x="-0.116" y="-9" relative="1" as="geometry">
            <mxPoint y="1" as="offset" />
          </mxGeometry>
        </mxCell>
        <mxCell id="lg_EyMamGVI91yFSFqXe-28" value="010" style="ellipse;whiteSpace=wrap;html=1;fillColor=#dae8fc;strokeColor=#6c8ebf;fontStyle=1;fontSize=16;" vertex="1" parent="1">
          <mxGeometry x="80" y="680" width="80" height="40" as="geometry" />
        </mxCell>
        <mxCell id="lg_EyMamGVI91yFSFqXe-37" style="edgeStyle=orthogonalEdgeStyle;curved=1;rounded=0;orthogonalLoop=1;jettySize=auto;html=1;exitX=0.5;exitY=0;exitDx=0;exitDy=0;entryX=0;entryY=0.5;entryDx=0;entryDy=0;" edge="1" parent="1" source="lg_EyMamGVI91yFSFqXe-29" target="lg_EyMamGVI91yFSFqXe-30">
          <mxGeometry relative="1" as="geometry" />
        </mxCell>
        <mxCell id="lg_EyMamGVI91yFSFqXe-77" value="&lt;font style=&quot;font-size: 16px;&quot;&gt;0&lt;/font&gt;" style="edgeLabel;html=1;align=center;verticalAlign=middle;resizable=0;points=[];" vertex="1" connectable="0" parent="lg_EyMamGVI91yFSFqXe-37">
          <mxGeometry x="0.2" y="-19" relative="1" as="geometry">
            <mxPoint y="1" as="offset" />
          </mxGeometry>
        </mxCell>
        <mxCell id="lg_EyMamGVI91yFSFqXe-61" style="edgeStyle=orthogonalEdgeStyle;curved=1;rounded=0;orthogonalLoop=1;jettySize=auto;html=1;exitX=0.5;exitY=0;exitDx=0;exitDy=0;entryX=0;entryY=0.5;entryDx=0;entryDy=0;dashed=1;" edge="1" parent="1" source="lg_EyMamGVI91yFSFqXe-29" target="lg_EyMamGVI91yFSFqXe-23">
          <mxGeometry relative="1" as="geometry">
            <Array as="points">
              <mxPoint x="120" y="500" />
              <mxPoint x="370" y="500" />
              <mxPoint x="370" y="460" />
            </Array>
          </mxGeometry>
        </mxCell>
        <mxCell id="lg_EyMamGVI91yFSFqXe-65" value="&lt;font style=&quot;font-size: 16px;&quot;&gt;1&lt;/font&gt;" style="edgeLabel;html=1;align=center;verticalAlign=middle;resizable=0;points=[];" vertex="1" connectable="0" parent="lg_EyMamGVI91yFSFqXe-61">
          <mxGeometry x="-0.0526" relative="1" as="geometry">
            <mxPoint as="offset" />
          </mxGeometry>
        </mxCell>
        <mxCell id="lg_EyMamGVI91yFSFqXe-29" value="100" style="ellipse;whiteSpace=wrap;html=1;fillColor=#dae8fc;strokeColor=#6c8ebf;fontStyle=1;fontSize=16;" vertex="1" parent="1">
          <mxGeometry x="80" y="560" width="80" height="40" as="geometry" />
        </mxCell>
        <mxCell id="lg_EyMamGVI91yFSFqXe-38" style="edgeStyle=orthogonalEdgeStyle;curved=1;rounded=0;orthogonalLoop=1;jettySize=auto;html=1;exitX=1;exitY=0.5;exitDx=0;exitDy=0;entryX=0;entryY=0.5;entryDx=0;entryDy=0;" edge="1" parent="1" source="lg_EyMamGVI91yFSFqXe-30" target="lg_EyMamGVI91yFSFqXe-23">
          <mxGeometry relative="1" as="geometry" />
        </mxCell>
        <mxCell id="lg_EyMamGVI91yFSFqXe-70" value="&lt;font style=&quot;font-size: 16px;&quot;&gt;1&lt;/font&gt;" style="edgeLabel;html=1;align=center;verticalAlign=middle;resizable=0;points=[];" vertex="1" connectable="0" parent="lg_EyMamGVI91yFSFqXe-38">
          <mxGeometry x="-0.125" y="1" relative="1" as="geometry">
            <mxPoint y="1" as="offset" />
          </mxGeometry>
        </mxCell>
        <mxCell id="lg_EyMamGVI91yFSFqXe-30" value="000" style="ellipse;whiteSpace=wrap;html=1;fillColor=#dae8fc;strokeColor=#6c8ebf;fontStyle=1;fontSize=16;" vertex="1" parent="1">
          <mxGeometry x="240" y="440" width="80" height="40" as="geometry" />
        </mxCell>
      </root>
    </mxGraphModel>
  </diagram>
</mxfile>
